PathFileType	4	(X/Y/Z)	 s08c0203.trc
DataRate	CameraRate	NumFrames	NumMarkers	Units	OrigDataRate	OrigDataStartFrame	OrigNumFrames
200	200	5	50	mm	200	501	2000
Frame#	Time	racr			lacr			c7			jug			rlel			rdr			llel			ldr			s2			lic			ric			lasi			rasi			rpsi			lpsi			rgt			lgt			rth1			rth2			rth3			rth4			rlfc			rmfc			rsh1			rsh2			rsh3			rsh4			rlmal			rmmal			rcal			rtoe			rmt5			lth1			lth2			lth4			lth3			llfc			lmfc			llmal			lmmal			lcal			lmt5			lsh1			lsh2			lsh3			lsh4			ltoe			SBIKE			LBIKE			RBIKE			
		X1	Y1	Z1	X2	Y2	Z2	X3	Y3	Z3	X4	Y4	Z4	X5	Y5	Z5	X6	Y6	Z6	X7	Y7	Z7	X8	Y8	Z8	X9	Y9	Z9	X10	Y10	Z10	X11	Y11	Z11	X12	Y12	Z12	X13	Y13	Z13	X14	Y14	Z14	X15	Y15	Z15	X16	Y16	Z16	X17	Y17	Z17	X18	Y18	Z18	X19	Y19	Z19	X20	Y20	Z20	X21	Y21	Z21	X22	Y22	Z22	X23	Y23	Z23	X24	Y24	Z24	X25	Y25	Z25	X26	Y26	Z26	X27	Y27	Z27	X28	Y28	Z28	X29	Y29	Z29	X30	Y30	Z30	X31	Y31	Z31	X32	Y32	Z32	X33	Y33	Z33	X34	Y34	Z34	X35	Y35	Z35	X36	Y36	Z36	X37	Y37	Z37	X38	Y38	Z38	X39	Y39	Z39	X40	Y40	Z40	X41	Y41	Z41	X42	Y42	Z42	X43	Y43	Z43	X44	Y44	Z44	X45	Y45	Z45	X46	Y46	Z46	X47	Y47	Z47	X48	Y48	Z48	X49	Y49	Z49	X50	Y50	Z50	
501	2.5050	571.593027	1376.324534	-48.387503	577.206547	1349.635608	-384.890017	533.510760	1449.840028	-211.990279	513.578101	1288.269506	-205.270304	567.275890	1130.260331	81.676278	754.516285	934.292654	-35.293076	536.278962	1085.164485	-502.225261	744.891222	928.680778	-414.502454	-4.013006	1199.230611	-203.409699	151.833753	1209.844892	-362.068052	159.519761	1211.073096	-43.931983	181.641745	1160.520262	-325.607019	183.936876	1151.854731	-83.492576	25.574159	1240.501122	-149.986091	24.670185	1245.443434	-246.578032	100.733087	1092.633608	-14.013977	95.123482	1084.973709	-391.725976	242.381625	998.743538	-19.938123	325.358286	967.545743	-28.176625	378.929672	899.257879	-38.368717	344.843036	995.816829	-41.748465	452.021729	820.969143	-61.467035	430.158180	813.009596	-170.414849	346.121527	746.523901	-31.567759	297.815768	673.501235	-52.938196	221.295810	634.088473	-56.848302	319.598611	656.652684	-83.390497	125.993214	565.178564	-62.056638	151.708573	568.621837	-150.788891	53.804616	599.771994	-109.714057	243.549234	367.875324	-101.828608	161.354062	417.632599	-36.875049	162.842381	961.652353	-406.041335	223.990214	899.170608	-403.956285	254.957061	916.474167	-395.238851	245.121403	812.852778	-402.328482	293.622532	695.384074	-383.433516	285.514573	667.400371	-283.301895	258.978786	276.708785	-402.241783	293.843703	307.544833	-328.733757	193.440906	248.787634	-366.485418	404.880746	202.256849	-417.937018	280.247553	566.118158	-415.676506	295.716896	482.829375	-401.577590	270.284302	398.286175	-405.387273	315.106886	484.384682	-366.852934	483.448242	241.594510	-350.692526	-203.750679	918.871985	-228.606724	-5.990442	83.220370	-426.438437	-8.720163	80.194503	-28.215914	
502	2.5100	569.887349	1374.407853	-44.293091	577.549605	1352.218898	-381.493635	533.220810	1450.144855	-207.579193	512.568115	1288.864451	-203.091926	565.651736	1128.322871	84.984422	755.256630	935.584023	-34.373304	537.658318	1088.845843	-501.451722	745.040704	929.575584	-414.633599	-5.615458	1199.232450	-205.969004	153.689398	1209.444641	-363.792673	156.679523	1211.593834	-45.650859	182.131393	1159.053332	-327.194344	182.581036	1152.951593	-84.801564	24.305266	1239.815653	-154.077916	25.105293	1244.623617	-250.478862	99.233599	1093.754819	-15.948763	95.314328	1083.087204	-393.305062	242.804890	1002.170157	-21.038940	326.440121	973.016807	-29.064137	381.690499	905.999623	-38.906655	345.357980	1001.689963	-42.648461	456.315268	829.732918	-61.818870	435.285852	821.079677	-171.345785	350.743614	755.245386	-32.429089	302.516251	681.996398	-53.554473	226.111346	642.420158	-57.435091	324.374907	664.837594	-83.766455	130.987298	573.089097	-62.586991	157.539533	576.814522	-150.755030	57.996858	606.524247	-110.226820	251.455441	377.749612	-102.087463	168.525279	426.297746	-37.137088	160.042873	958.895062	-407.927785	219.698934	894.984194	-406.089009	251.066718	911.559241	-397.272152	238.810098	808.171212	-404.484710	284.585684	690.017574	-385.338539	276.975359	661.655145	-286.373650	252.853056	271.327377	-402.948731	288.299943	302.271363	-329.623079	187.812070	244.999437	-366.710733	398.279576	194.065333	-417.992468	271.251588	560.896110	-417.609366	287.568243	477.639142	-403.439163	262.893291	392.798894	-406.856649	307.059170	479.384697	-368.723535	485.570987	238.607655	-358.875475	-203.552076	918.917521	-229.183171	-5.730577	83.063294	-426.173468	-8.719761	80.234766	-28.257060	
503	2.5150	568.322242	1372.912548	-39.419530	578.037985	1354.724777	-377.740100	533.017150	1450.220593	-203.016645	512.199692	1289.220613	-200.494310	563.927072	1126.238301	88.321640	755.479229	936.238868	-33.685443	538.803823	1092.394355	-500.073467	745.114864	930.597142	-414.937332	-6.274273	1198.802958	-209.475093	155.499474	1209.248599	-365.210914	153.921446	1212.181025	-47.533575	182.584975	1157.392839	-328.623451	181.214456	1154.193499	-86.012830	23.132402	1239.474952	-158.134484	25.489841	1244.051196	-254.228356	97.304967	1094.750519	-18.052320	95.072650	1081.552235	-394.859488	243.246539	1006.116698	-21.714180	327.367579	978.739429	-29.884865	384.182371	912.911836	-39.576822	345.872487	1008.146091	-42.552914	460.478299	838.185545	-62.418785	440.078296	829.190031	-172.042816	355.093472	763.908096	-33.290476	307.419150	690.332641	-53.739642	230.724286	650.811467	-57.889407	329.197054	673.023105	-83.936356	136.078436	580.382280	-63.096017	162.738366	584.952656	-150.822656	62.183795	612.597133	-110.457204	259.971739	387.673084	-102.112651	176.115192	434.446026	-37.350690	156.886334	956.783727	-409.828661	215.113873	891.534383	-408.420096	246.875562	907.373771	-399.493751	232.320250	804.281477	-407.088027	286.413484	692.265667	-399.453245	266.396051	658.202584	-286.911857	246.409617	266.494453	-403.316137	282.311537	297.681251	-330.328078	181.907870	241.938935	-366.906668	391.212910	186.336856	-418.007200	261.963431	556.131922	-419.447628	279.214885	473.114424	-405.338674	255.002268	388.220352	-408.738639	299.022628	474.855236	-370.604095	470.152863	220.014712	-347.541403	-198.585526	922.101242	-225.105688	-5.748871	83.085760	-426.205827	-8.735531	80.260380	-28.283574	
504	2.5200	567.052357	1371.271397	-34.672512	578.074154	1356.367693	-372.260822	532.801527	1450.163616	-198.427004	511.515217	1289.506396	-197.764531	562.134951	1124.141364	91.616526	755.452007	936.781350	-33.150007	539.612619	1096.267355	-499.832944	745.084954	931.878533	-415.402469	-6.738098	1198.572531	-213.095687	157.317858	1208.974976	-366.292626	151.293276	1213.027665	-49.425202	182.873963	1155.493348	-330.091430	179.635323	1155.397540	-87.400968	22.029113	1239.314691	-161.986883	25.381529	1243.826826	-257.822205	95.424863	1095.956867	-19.936201	94.448740	1080.376309	-396.437088	242.848332	1009.683923	-23.456817	328.046851	984.480311	-30.127482	386.186519	919.925581	-40.324764	345.706891	1013.879367	-44.099265	464.397715	846.287220	-63.454728	444.371885	837.312235	-173.036675	359.183467	772.531367	-34.116501	311.375883	698.579093	-54.490409	235.422061	658.728193	-58.175841	334.045602	680.983067	-83.833549	141.219936	587.054876	-63.432341	167.469798	591.718406	-151.313775	66.443503	617.943626	-110.610103	268.636847	396.654075	-103.456665	184.377023	442.518742	-37.369313	153.554074	955.284239	-411.744385	210.437981	888.652693	-410.902031	242.521649	903.855168	-402.051731	225.807320	801.170426	-409.960367	277.470572	688.138090	-401.673408	255.524072	655.834425	-286.693989	239.783711	262.326654	-403.635841	276.436881	293.553051	-331.191429	175.829108	239.703159	-366.917376	383.743763	178.945978	-418.013444	252.574511	551.990399	-421.444485	270.775218	468.965504	-407.120310	247.137185	384.034133	-410.197112	290.940470	471.253951	-372.908174	463.463418	210.811918	-347.712976	-198.530483	922.101420	-225.309975	-5.770616	82.934774	-426.096042	-8.769062	80.294091	-28.314867	
505	2.5250	565.313837	1369.322282	-30.591500	578.747961	1358.606274	-368.236874	532.395039	1449.771295	-193.840892	511.370589	1289.384252	-195.485360	560.434251	1121.986935	94.772361	755.479688	937.260376	-32.280894	540.780604	1099.764503	-498.522645	745.048437	933.479426	-416.440059	-7.213597	1198.475387	-216.436851	159.016941	1208.769481	-367.221857	148.610029	1213.826534	-51.204852	183.593261	1154.394881	-333.621630	178.084826	1156.851911	-88.687631	21.009810	1239.423408	-165.770685	25.181707	1243.860442	-261.209672	93.513497	1097.504046	-21.645094	93.468751	1079.493032	-397.948207	242.598749	1013.778391	-25.121323	328.081179	990.074710	-30.988114	387.920357	926.723416	-41.120608	345.541097	1019.824773	-44.846890	467.555312	854.674273	-63.511966	448.164917	845.316950	-173.836401	363.183160	780.928455	-34.988071	315.707875	706.696648	-54.943153	240.034084	666.346777	-58.354387	338.775594	688.651923	-83.823069	146.529572	593.081632	-63.618112	172.978067	598.177607	-151.269356	69.885322	622.094681	-111.578591	278.198696	406.669401	-102.912925	192.684558	449.631507	-37.509533	150.124525	954.142693	-413.657700	205.731079	886.438542	-413.581407	238.158642	900.907300	-404.666570	219.380274	798.632274	-412.800924	268.747862	684.732862	-403.915744	246.106845	653.342404	-287.497522	232.999268	258.835910	-403.985407	270.387490	290.232759	-332.037000	169.590690	238.275917	-366.827849	375.805371	172.183630	-418.107248	243.247739	548.322009	-423.298886	262.234389	465.772678	-409.183211	239.148292	380.503270	-411.526436	282.986743	468.276213	-375.301684	456.388202	202.158043	-347.776691	-198.540124	922.039523	-225.464414	-5.780512	82.983684	-426.214799	-8.806567	80.333005	-28.340342	
